<?xml version="1.0" encoding="UTF-8" standalone="no"?>
<svg
   id="svg"
   version="1.1"
   width="400"
   height="379.0893760539629"
   viewBox="0, 0, 400,379.0893760539629"
   sodipodi:docname="awesome.svg"
   inkscape:version="1.1.1 (3bf5ae0d25, 2021-09-20)"
   xmlns:inkscape="http://www.inkscape.org/namespaces/inkscape"
   xmlns:sodipodi="http://sodipodi.sourceforge.net/DTD/sodipodi-0.dtd"
   xmlns="http://www.w3.org/2000/svg"
   xmlns:svg="http://www.w3.org/2000/svg">
  <defs
     id="defs890" />
  <sodipodi:namedview
     id="namedview888"
     pagecolor="#ffffff"
     bordercolor="#666666"
     borderopacity="1.0"
     inkscape:pageshadow="2"
     inkscape:pageopacity="0.0"
     inkscape:pagecheckerboard="0"
     showgrid="false"
     inkscape:zoom="0.27203347"
     inkscape:cx="-281.2154"
     inkscape:cy="575.29686"
     inkscape:window-width="1904"
     inkscape:window-height="1029"
     inkscape:window-x="1374"
     inkscape:window-y="43"
     inkscape:window-maximized="0"
     inkscape:current-layer="svg" />
  <g
     id="svgg"
     style="stroke-width:1.0015748;stroke-miterlimit:4;stroke-dasharray:none;fill:#98c379;fill-opacity:1">
    <path
       id="path0"
       d="M56.201 15.075 C 55.984 15.292,55.629 15.401,54.300 15.658 C 54.022 15.712,53.372 15.928,52.855 16.137 C 52.339 16.347,51.807 16.496,51.675 16.470 C 51.542 16.443,50.750 16.728,49.916 17.103 C 48.640 17.675,47.249 18.227,46.981 18.266 C 46.944 18.271,46.109 18.717,45.126 19.256 C 44.143 19.795,42.830 20.472,42.208 20.761 C 41.586 21.050,40.903 21.433,40.691 21.613 C 40.478 21.793,39.585 22.404,38.707 22.971 C 37.829 23.538,36.653 24.430,36.093 24.953 C 35.534 25.475,35.074 25.804,35.071 25.683 C 35.066 25.396,30.446 30.225,29.293 31.724 C 28.802 32.362,27.967 33.367,27.438 33.957 C 25.722 35.871,25.348 36.365,25.500 36.517 C 25.582 36.599,25.417 36.858,25.135 37.093 C 24.852 37.327,24.621 37.728,24.621 37.984 C 24.621 38.239,24.469 38.449,24.283 38.449 C 24.098 38.449,23.946 38.586,23.946 38.754 C 23.946 38.922,23.268 40.159,22.440 41.503 C 21.611 42.846,21.013 44.075,21.110 44.233 C 21.208 44.390,21.102 44.519,20.874 44.519 C 20.647 44.519,20.556 44.615,20.672 44.731 C 20.789 44.847,20.631 45.416,20.321 45.996 C 20.012 46.575,19.739 47.125,19.715 47.218 C 19.691 47.310,19.571 47.652,19.448 47.976 C 18.699 49.951,18.715 49.903,18.033 52.277 C 17.463 54.256,17.368 54.634,16.838 56.998 C 15.893 61.213,15.761 62.683,15.761 68.971 C 15.761 74.183,15.877 76.113,16.339 78.583 C 16.508 79.485,17.188 82.577,17.341 83.137 C 17.391 83.322,17.545 83.929,17.682 84.486 C 17.819 85.042,18.018 85.725,18.123 86.003 C 18.228 86.282,18.353 86.661,18.399 86.847 C 18.557 87.473,20.538 92.700,20.852 93.317 C 23.227 97.986,23.389 98.276,23.777 98.561 C 23.963 98.698,23.995 98.812,23.848 98.814 C 23.701 98.817,23.969 99.237,24.443 99.747 C 24.918 100.257,25.586 101.239,25.928 101.930 C 26.270 102.620,26.647 103.088,26.766 102.970 C 26.884 102.851,26.981 102.935,26.981 103.157 C 26.981 103.378,27.450 104.074,28.023 104.704 C 28.596 105.333,29.029 105.898,28.986 105.960 C 28.942 106.021,30.236 107.361,31.860 108.938 C 35.785 112.748,36.046 112.984,36.341 112.988 C 36.480 112.990,37.106 113.519,37.731 114.163 C 38.357 114.807,38.978 115.267,39.110 115.185 C 39.242 115.103,39.869 115.479,40.502 116.021 C 41.135 116.562,41.824 117.011,42.033 117.018 C 43.055 117.055,43.319 118.097,42.479 118.779 C 42.025 119.149,41.880 119.339,42.159 119.202 C 42.437 119.065,42.930 118.725,43.255 118.446 C 43.842 117.942,46.399 118.808,46.040 119.388 C 45.971 119.499,46.187 119.611,46.518 119.636 C 46.850 119.661,47.712 119.946,48.434 120.271 C 49.156 120.595,49.977 120.887,50.258 120.920 C 50.538 120.953,51.221 121.209,51.775 121.489 C 52.329 121.769,52.972 121.931,53.204 121.848 C 53.436 121.765,53.626 121.849,53.626 122.033 C 53.626 122.389,56.087 122.968,57.083 122.846 C 57.407 122.806,57.673 122.902,57.673 123.060 C 57.673 123.373,60.642 123.831,63.125 123.901 C 64.344 123.935,64.620 124.040,64.349 124.367 C 64.156 124.599,64.055 124.793,64.124 124.799 C 64.495 124.826,110.065 125.129,138.449 125.293 C 156.442 125.396,182.167 125.554,195.616 125.644 C 209.064 125.734,230.601 125.875,243.474 125.956 C 256.348 126.038,266.996 126.227,267.136 126.375 C 267.277 126.523,267.443 127.441,267.507 128.415 L 267.622 130.186 263.744 130.213 C 261.610 130.228,217.749 130.300,166.273 130.374 C 59.648 130.526,66.459 130.408,60.540 132.210 C 59.983 132.379,59.042 132.601,58.449 132.702 C 57.856 132.804,56.945 133.063,56.425 133.279 C 55.906 133.494,55.405 133.696,55.312 133.728 C 55.219 133.759,54.878 133.886,54.553 134.009 C 53.128 134.549,52.760 134.677,52.400 134.754 C 52.080 134.823,48.118 136.762,45.966 137.903 C 45.634 138.079,44.793 138.471,44.098 138.773 C 43.402 139.076,42.833 139.433,42.833 139.568 C 42.833 139.702,42.150 140.185,41.315 140.641 C 40.481 141.097,39.798 141.590,39.798 141.737 C 39.798 141.884,39.380 142.191,38.870 142.419 C 37.817 142.889,37.348 143.311,32.209 148.405 C 27.996 152.581,27.656 152.957,27.656 153.440 C 27.656 153.632,27.352 153.978,26.981 154.210 C 26.610 154.441,26.307 154.815,26.307 155.039 C 26.307 155.263,26.090 155.568,25.825 155.717 C 25.560 155.865,25.335 156.102,25.325 156.243 C 25.299 156.592,24.251 158.203,23.535 158.993 C 23.213 159.347,22.783 160.144,22.579 160.763 C 22.375 161.382,22.058 161.889,21.876 161.889 C 21.694 161.889,21.631 162.028,21.736 162.197 C 21.841 162.367,21.812 162.557,21.672 162.619 C 21.315 162.777,19.965 165.575,19.704 166.695 C 19.586 167.205,19.344 167.622,19.168 167.622 C 18.991 167.622,18.924 167.747,19.018 167.899 C 19.113 168.052,18.982 168.578,18.727 169.068 C 18.090 170.295,16.827 173.903,16.912 174.251 C 16.950 174.408,16.740 175.371,16.446 176.391 C 16.151 177.411,15.907 178.474,15.902 178.752 C 15.897 179.030,15.778 179.865,15.637 180.607 C 15.193 182.942,15.501 315.267,15.957 317.875 C 16.424 320.552,16.619 321.264,16.940 321.463 C 17.131 321.582,17.191 321.834,17.073 322.025 C 16.955 322.215,16.998 322.422,17.168 322.484 C 17.337 322.546,17.567 323.178,17.678 323.888 C 17.789 324.599,18.063 325.509,18.287 325.912 C 18.510 326.315,18.661 326.758,18.621 326.897 C 18.582 327.036,18.702 327.150,18.887 327.150 C 19.073 327.150,19.224 327.310,19.224 327.506 C 19.224 327.702,19.672 328.765,20.219 329.867 C 20.766 330.970,21.145 331.872,21.062 331.872 C 20.979 331.872,21.214 332.175,21.585 332.546 C 21.956 332.917,22.260 333.502,22.260 333.846 C 22.260 334.190,22.632 334.873,23.087 335.364 C 23.542 335.855,23.847 336.256,23.765 336.256 C 23.616 336.256,24.406 337.277,25.211 338.125 C 25.443 338.369,25.632 338.736,25.632 338.941 C 25.632 339.146,25.860 339.400,26.138 339.507 C 26.417 339.614,26.644 339.913,26.644 340.171 C 26.644 340.429,26.799 340.641,26.989 340.641 C 27.178 340.641,27.506 341.020,27.717 341.484 C 27.929 341.948,28.305 342.327,28.553 342.327 C 28.802 342.327,29.005 342.446,29.005 342.591 C 29.005 342.893,32.267 346.374,32.550 346.374 C 32.653 346.374,33.220 346.868,33.809 347.470 C 34.399 348.073,34.988 348.567,35.119 348.567 C 35.249 348.567,35.635 348.870,35.975 349.241 C 36.315 349.612,37.504 350.521,38.617 351.260 C 39.730 352.000,40.717 352.683,40.809 352.778 C 40.902 352.873,41.195 352.998,41.460 353.056 C 41.726 353.113,42.356 353.455,42.861 353.814 C 43.367 354.174,43.947 354.469,44.150 354.469 C 44.353 354.469,44.519 354.621,44.519 354.806 C 44.519 354.992,44.633 355.106,44.772 355.061 C 44.911 355.016,45.586 355.326,46.271 355.751 C 46.956 356.176,47.849 356.588,48.256 356.666 C 48.663 356.745,49.253 357.041,49.567 357.325 C 49.881 357.609,50.552 357.841,51.058 357.841 C 51.565 357.841,51.905 357.961,51.815 358.107 C 51.725 358.253,52.049 358.406,52.535 358.446 C 53.021 358.486,53.504 358.632,53.607 358.771 C 53.710 358.909,53.946 359.028,54.132 359.034 C 54.317 359.041,55.509 359.383,56.779 359.793 L 59.090 360.539 137.356 360.536 C 185.565 360.534,215.768 360.412,216.002 360.217 C 216.212 360.043,217.023 359.863,217.804 359.817 C 218.585 359.771,219.224 359.628,219.224 359.500 C 219.224 359.372,219.908 359.165,220.744 359.039 C 221.580 358.914,222.669 358.601,223.165 358.344 C 223.661 358.086,224.181 357.947,224.321 358.033 C 224.461 358.120,225.272 357.802,226.123 357.326 C 226.975 356.851,227.800 356.542,227.957 356.639 C 228.115 356.736,228.590 356.515,229.013 356.148 C 229.436 355.781,229.911 355.462,230.068 355.438 C 230.226 355.415,230.498 355.377,230.675 355.354 C 230.851 355.331,231.185 355.122,231.417 354.890 C 231.648 354.659,232.113 354.469,232.448 354.469 C 232.784 354.469,233.319 354.165,233.636 353.794 C 233.954 353.423,234.408 353.120,234.645 353.120 C 234.882 353.120,235.076 352.959,235.076 352.763 C 235.076 352.566,235.205 352.485,235.362 352.582 C 235.520 352.680,236.146 352.347,236.754 351.843 C 237.362 351.340,237.954 350.925,238.070 350.922 C 238.290 350.916,239.461 349.993,240.523 348.988 C 240.866 348.664,241.147 348.482,241.147 348.584 C 241.147 348.686,241.506 348.383,241.944 347.909 C 242.383 347.436,242.923 347.049,243.145 347.049 C 243.366 347.049,243.454 346.897,243.339 346.712 C 243.224 346.526,243.284 346.374,243.472 346.374 C 243.916 346.374,247.218 343.073,247.218 342.628 C 247.218 342.441,247.369 342.381,247.555 342.496 C 247.740 342.610,247.892 342.523,247.892 342.301 C 247.892 342.080,248.279 341.540,248.753 341.101 C 249.226 340.662,249.529 340.304,249.427 340.304 C 249.325 340.304,249.507 340.023,249.831 339.680 C 250.836 338.618,251.759 337.447,251.765 337.227 C 251.768 337.111,252.183 336.519,252.687 335.911 C 253.190 335.303,253.523 334.676,253.425 334.519 C 253.328 334.362,253.409 334.233,253.606 334.233 C 253.802 334.233,253.963 334.039,253.963 333.802 C 253.963 333.565,254.266 333.111,254.637 332.793 C 255.008 332.476,255.312 331.941,255.312 331.605 C 255.312 331.270,255.502 330.805,255.734 330.573 C 255.965 330.341,256.174 330.008,256.197 329.831 C 256.220 329.655,256.258 329.382,256.282 329.225 C 256.305 329.068,256.624 328.593,256.991 328.170 C 257.358 327.747,257.579 327.272,257.482 327.114 C 257.385 326.957,257.699 326.124,258.179 325.262 C 258.660 324.401,258.970 323.613,258.868 323.511 C 258.766 323.409,258.923 322.959,259.216 322.510 C 259.510 322.062,259.668 321.613,259.567 321.512 C 259.466 321.411,259.532 321.050,259.713 320.710 C 259.895 320.371,260.105 319.670,260.179 319.153 C 260.254 318.636,260.477 317.689,260.676 317.050 C 260.874 316.411,261.111 315.272,261.202 314.521 C 261.294 313.769,261.494 312.470,261.647 311.636 C 261.800 310.801,261.901 309.478,261.872 308.695 C 261.842 307.912,261.947 307.352,262.106 307.450 C 262.265 307.548,262.395 307.468,262.395 307.271 C 262.395 307.075,262.243 306.914,262.057 306.914 C 261.872 306.914,261.720 306.753,261.720 306.557 C 261.720 306.360,261.895 306.308,262.109 306.440 C 262.336 306.580,262.408 306.534,262.281 306.328 C 262.161 306.134,261.989 304.053,261.900 301.704 C 261.810 299.354,261.667 297.320,261.582 297.183 C 261.498 297.046,261.342 296.181,261.237 295.261 C 261.132 294.341,260.881 293.058,260.680 292.410 C 260.479 291.761,260.254 290.808,260.179 290.291 C 260.105 289.774,259.895 289.073,259.713 288.733 C 259.532 288.394,259.466 288.033,259.567 287.932 C 259.668 287.831,259.510 287.381,259.216 286.933 C 258.923 286.485,258.766 286.034,258.869 285.931 C 258.972 285.828,258.597 284.895,258.035 283.857 C 257.473 282.819,256.938 281.551,256.845 281.038 C 256.752 280.526,256.520 280.054,256.329 279.991 C 256.138 279.927,256.057 279.753,256.149 279.605 C 256.241 279.456,256.090 279.147,255.814 278.918 C 255.538 278.688,255.312 278.214,255.312 277.864 C 255.312 277.514,255.008 276.968,254.637 276.650 C 254.266 276.333,253.963 275.879,253.963 275.642 C 253.963 275.405,253.802 275.211,253.606 275.211 C 253.409 275.211,253.328 275.082,253.425 274.925 C 253.523 274.767,253.190 274.141,252.687 273.533 C 252.183 272.925,251.768 272.333,251.765 272.217 C 251.759 271.997,250.836 270.826,249.831 269.764 C 249.507 269.421,249.325 269.140,249.427 269.140 C 249.529 269.140,249.226 268.781,248.753 268.342 C 248.279 267.904,247.892 267.364,247.892 267.142 C 247.892 266.921,247.740 266.833,247.555 266.948 C 247.369 267.062,247.218 267.003,247.218 266.815 C 247.218 266.371,243.916 263.069,243.472 263.069 C 243.284 263.069,243.224 262.917,243.339 262.732 C 243.454 262.546,243.366 262.395,243.145 262.395 C 242.923 262.395,242.383 262.007,241.944 261.534 C 241.506 261.061,241.147 260.757,241.147 260.860 C 241.147 260.962,240.866 260.780,240.523 260.455 C 239.461 259.451,238.290 258.528,238.070 258.522 C 237.954 258.519,237.362 258.104,236.754 257.600 C 236.146 257.096,235.520 256.764,235.362 256.861 C 235.205 256.959,235.076 256.877,235.076 256.681 C 235.076 256.485,234.882 256.324,234.645 256.324 C 234.408 256.324,233.954 256.020,233.636 255.649 C 233.319 255.278,232.784 254.975,232.448 254.975 C 232.113 254.975,231.648 254.785,231.417 254.553 C 231.185 254.321,230.851 254.113,230.675 254.089 C 230.498 254.066,230.226 254.028,230.068 254.005 C 229.911 253.982,229.436 253.663,229.013 253.295 C 228.590 252.928,228.125 252.701,227.980 252.791 C 227.835 252.880,226.960 252.574,226.035 252.109 C 225.111 251.645,224.119 251.265,223.833 251.265 C 223.546 251.265,223.215 251.109,223.097 250.919 C 222.980 250.728,222.705 250.606,222.487 250.647 C 222.269 250.689,221.712 250.594,221.248 250.438 C 220.784 250.281,220.177 250.130,219.899 250.100 C 219.621 250.071,218.767 249.865,218.001 249.643 C 215.574 248.936,215.055 248.928,175.464 248.921 L 136.594 248.914 136.594 247.054 L 136.594 245.194 159.275 245.181 C 171.750 245.174,201.193 245.092,224.705 244.999 L 267.454 244.831 267.482 277.643 C 267.497 295.690,267.569 310.835,267.642 311.298 C 267.715 311.762,267.848 312.673,267.939 313.322 C 268.275 315.745,268.624 317.598,268.828 318.044 C 268.871 318.137,268.941 318.364,268.984 318.550 C 269.027 318.735,269.091 318.963,269.127 319.056 C 269.162 319.148,269.249 319.452,269.319 319.730 C 269.390 320.008,269.816 321.253,270.267 322.495 C 270.717 323.738,271.002 324.838,270.900 324.940 C 270.798 325.043,270.891 325.126,271.107 325.126 C 271.324 325.126,271.475 325.240,271.443 325.379 C 271.411 325.519,271.640 326.239,271.951 326.981 C 272.263 327.723,272.544 328.482,272.576 328.668 C 272.607 328.853,272.841 329.213,273.095 329.467 C 273.350 329.722,273.648 330.380,273.758 330.930 C 273.868 331.480,274.164 332.009,274.416 332.106 C 274.667 332.202,274.874 332.427,274.874 332.606 C 274.874 332.785,275.323 333.584,275.872 334.382 C 276.421 335.180,276.775 335.928,276.659 336.045 C 276.543 336.161,276.625 336.256,276.841 336.256 C 277.057 336.256,277.234 336.484,277.234 336.762 C 277.234 337.040,277.362 337.268,277.519 337.268 C 277.675 337.268,278.089 337.799,278.438 338.449 C 278.788 339.098,279.166 339.629,279.278 339.629 C 279.389 339.629,279.961 340.298,280.548 341.115 C 282.873 344.352,291.794 352.445,293.038 352.445 C 293.219 352.445,293.418 352.559,293.479 352.698 C 293.629 353.034,297.091 355.143,297.493 355.143 C 297.666 355.143,297.808 355.279,297.808 355.444 C 297.808 355.609,298.187 355.840,298.651 355.956 C 299.115 356.073,299.494 356.326,299.494 356.519 C 299.494 356.712,299.646 356.776,299.831 356.661 C 300.017 356.546,300.169 356.639,300.169 356.866 C 300.169 357.093,300.264 357.184,300.380 357.068 C 300.496 356.952,301.026 357.081,301.557 357.356 C 302.088 357.630,302.601 357.850,302.697 357.844 C 302.793 357.838,303.611 358.207,304.514 358.665 C 305.418 359.123,306.252 359.403,306.367 359.288 C 306.482 359.173,306.577 359.264,306.577 359.492 C 306.577 359.719,306.724 359.814,306.904 359.703 C 307.084 359.591,307.673 359.729,308.213 360.008 C 309.687 360.770,342.398 360.801,344.215 360.042 C 344.885 359.762,345.570 359.616,345.736 359.719 C 345.901 359.821,346.037 359.719,346.037 359.492 C 346.037 359.264,346.131 359.173,346.247 359.288 C 346.362 359.403,347.197 359.122,348.102 358.664 C 349.007 358.205,349.747 357.923,349.747 358.036 C 349.747 358.150,350.430 357.843,351.265 357.353 C 352.099 356.864,352.782 356.570,352.782 356.699 C 352.782 356.828,353.048 356.704,353.373 356.424 C 353.697 356.143,355.101 355.250,356.492 354.438 C 357.884 353.627,359.073 352.847,359.134 352.704 C 359.196 352.562,359.438 352.445,359.672 352.445 C 359.906 352.445,360.373 352.142,360.708 351.771 C 361.044 351.400,361.446 351.096,361.601 351.096 C 361.904 351.096,363.276 349.991,364.298 348.925 C 364.642 348.565,364.924 348.345,364.924 348.437 C 364.924 348.528,366.342 347.228,368.076 345.549 C 369.809 343.870,371.216 342.420,371.201 342.327 C 371.175 342.154,372.088 340.991,373.056 339.962 C 373.355 339.645,373.881 338.909,374.225 338.327 C 374.569 337.744,374.969 337.268,375.115 337.268 C 375.260 337.268,375.379 337.040,375.379 336.762 C 375.379 336.484,375.556 336.256,375.773 336.256 C 375.989 336.256,376.071 336.161,375.955 336.045 C 375.839 335.928,376.193 335.180,376.742 334.382 C 377.291 333.584,377.740 332.785,377.740 332.606 C 377.740 332.427,377.968 332.194,378.246 332.087 C 378.524 331.980,378.752 331.585,378.752 331.208 C 378.752 330.831,378.913 330.523,379.109 330.523 C 379.306 330.523,379.373 330.371,379.258 330.185 C 379.143 330.000,379.185 329.848,379.351 329.848 C 379.516 329.848,379.662 329.659,379.674 329.427 C 379.699 328.972,381.172 325.405,381.450 325.126 C 381.543 325.034,381.666 324.654,381.725 324.283 C 381.783 323.912,382.118 323.014,382.469 322.288 C 382.820 321.562,383.029 320.841,382.933 320.686 C 382.838 320.531,382.888 320.405,383.044 320.405 C 383.201 320.405,383.354 320.139,383.384 319.815 C 383.414 319.490,383.515 318.845,383.608 318.381 C 383.702 317.917,383.866 317.083,383.973 316.526 C 384.080 315.970,384.252 315.287,384.355 315.008 C 384.929 313.456,384.990 300.555,384.970 185.076 C 384.948 54.141,384.962 57.431,384.407 56.745 C 384.219 56.513,384.151 56.324,384.256 56.324 C 384.360 56.324,384.239 55.925,383.986 55.439 C 383.734 54.952,383.607 54.345,383.705 54.090 C 383.803 53.834,383.715 53.626,383.510 53.626 C 383.305 53.626,383.136 53.360,383.135 53.035 C 383.133 52.711,382.906 52.010,382.629 51.479 C 382.352 50.948,382.125 50.383,382.125 50.224 C 382.125 49.707,380.376 46.054,379.810 45.389 C 379.364 44.865,379.355 44.789,379.764 44.992 C 380.175 45.197,380.172 45.161,379.743 44.797 C 379.282 44.407,378.713 43.328,378.706 42.833 C 378.705 42.740,378.487 42.543,378.222 42.395 C 377.957 42.246,377.740 41.978,377.740 41.797 C 377.740 41.346,376.071 38.792,375.136 37.812 C 374.713 37.370,374.368 36.856,374.368 36.672 C 374.368 35.933,364.742 26.307,364.003 26.307 C 363.818 26.307,363.305 25.961,362.862 25.538 C 361.883 24.603,359.329 22.934,358.877 22.934 C 358.697 22.934,358.428 22.717,358.280 22.452 C 358.131 22.187,357.858 21.940,357.673 21.903 C 356.892 21.749,356.297 21.426,355.877 20.932 C 355.514 20.503,355.478 20.499,355.682 20.911 C 355.885 21.319,355.809 21.310,355.286 20.865 C 354.620 20.299,350.967 18.550,350.450 18.550 C 350.291 18.550,349.727 18.323,349.195 18.046 C 348.664 17.769,347.964 17.541,347.639 17.540 C 347.315 17.539,347.049 17.370,347.049 17.165 C 347.049 16.959,346.840 16.871,346.585 16.969 C 346.330 17.067,345.723 16.941,345.236 16.688 C 344.749 16.436,344.351 16.314,344.351 16.419 C 344.351 16.523,344.154 16.445,343.914 16.246 C 343.673 16.046,343.180 15.892,342.818 15.903 C 342.455 15.914,341.400 15.724,340.472 15.480 C 338.636 14.997,56.680 14.596,56.201 15.075 M62.648 121.658 C 62.137 121.735,61.303 121.735,60.793 121.658 C 60.282 121.581,60.700 121.518,61.720 121.518 C 62.740 121.518,63.158 121.581,62.648 121.658 M70.067 121.658 C 69.557 121.735,68.723 121.735,68.212 121.658 C 67.702 121.581,68.120 121.518,69.140 121.518 C 70.160 121.518,70.578 121.581,70.067 121.658 M81.541 121.658 C 81.034 121.734,80.123 121.736,79.517 121.661 C 78.911 121.586,79.325 121.523,80.438 121.521 C 81.551 121.519,82.047 121.581,81.541 121.658 M117.960 121.995 C 117.449 122.073,116.615 122.073,116.105 121.995 C 115.594 121.918,116.012 121.855,117.032 121.855 C 118.052 121.855,118.470 121.918,117.960 121.995 M125.379 121.995 C 124.869 122.073,124.035 122.073,123.524 121.995 C 123.014 121.918,123.432 121.855,124.452 121.855 C 125.472 121.855,125.890 121.918,125.379 121.995 M136.509 121.995 C 135.999 122.073,135.164 122.073,134.654 121.995 C 134.144 121.918,134.562 121.855,135.582 121.855 C 136.602 121.855,137.019 121.918,136.509 121.995 M173.272 122.333 C 172.761 122.410,171.927 122.410,171.417 122.333 C 170.906 122.255,171.324 122.192,172.344 122.192 C 173.364 122.192,173.782 122.255,173.272 122.333 M180.354 122.333 C 179.844 122.410,179.009 122.410,178.499 122.333 C 177.989 122.255,178.406 122.192,179.427 122.192 C 180.447 122.192,180.864 122.255,180.354 122.333 M191.827 122.332 C 191.320 122.409,190.410 122.411,189.804 122.335 C 189.197 122.260,189.612 122.197,190.725 122.196 C 191.838 122.194,192.334 122.255,191.827 122.332 M228.246 122.670 C 227.736 122.747,226.901 122.747,226.391 122.670 C 225.881 122.593,226.298 122.529,227.319 122.529 C 228.339 122.529,228.756 122.593,228.246 122.670 M235.666 122.670 C 235.156 122.747,234.321 122.747,233.811 122.670 C 233.301 122.593,233.718 122.529,234.739 122.529 C 235.759 122.529,236.176 122.593,235.666 122.670 M247.139 122.669 C 246.632 122.746,245.722 122.748,245.116 122.673 C 244.509 122.598,244.924 122.535,246.037 122.533 C 247.150 122.531,247.646 122.592,247.139 122.669 M77.825 133.810 C 75.089 133.867,70.611 133.867,67.875 133.810 C 65.139 133.754,67.378 133.707,72.850 133.707 C 78.322 133.707,80.561 133.754,77.825 133.810 M116.948 133.810 C 114.212 133.867,109.734 133.867,106.998 133.810 C 104.262 133.754,106.501 133.707,111.973 133.707 C 117.445 133.707,119.684 133.754,116.948 133.810 M175.822 133.810 C 173.190 133.867,168.788 133.867,166.041 133.811 C 163.293 133.754,165.447 133.707,170.826 133.707 C 176.206 133.707,178.454 133.753,175.822 133.810 M18.782 196.880 C 18.697 197.205,18.628 196.939,18.628 196.290 C 18.628 195.641,18.697 195.375,18.782 195.700 C 18.867 196.024,18.867 196.556,18.782 196.880 M18.788 206.488 C 18.708 206.908,18.639 206.644,18.635 205.902 C 18.631 205.160,18.697 204.817,18.781 205.139 C 18.866 205.462,18.869 206.069,18.788 206.488 M18.792 221.159 C 18.714 221.672,18.649 221.332,18.646 220.405 C 18.644 219.477,18.707 219.058,18.787 219.473 C 18.867 219.887,18.869 220.646,18.792 221.159 M18.792 230.602 C 18.714 231.115,18.649 230.776,18.646 229.848 C 18.644 228.921,18.707 228.501,18.787 228.916 C 18.867 229.331,18.869 230.090,18.792 230.602 M233.474 241.735 C 231.944 241.797,229.439 241.797,227.909 241.735 C 226.379 241.672,227.631 241.621,230.691 241.621 C 233.752 241.621,235.004 241.672,233.474 241.735 M265.514 241.735 C 263.984 241.797,261.480 241.797,259.949 241.735 C 258.419 241.672,259.671 241.621,262.732 241.621 C 265.793 241.621,267.045 241.672,265.514 241.735 M133.472 249.479 C 133.409 250.925,133.356 249.831,133.356 247.049 C 133.355 244.266,133.407 243.083,133.471 244.420 C 133.535 245.756,133.535 248.033,133.472 249.479 M18.792 244.768 C 18.714 245.280,18.649 244.941,18.646 244.013 C 18.644 243.086,18.707 242.667,18.787 243.081 C 18.867 243.496,18.869 244.255,18.792 244.768 M18.788 284.397 C 18.708 284.817,18.639 284.553,18.635 283.811 C 18.631 283.069,18.697 282.726,18.781 283.048 C 18.866 283.371,18.869 283.978,18.788 284.397 M18.794 289.117 C 18.719 289.723,18.656 289.309,18.654 288.196 C 18.652 287.083,18.714 286.587,18.791 287.093 C 18.868 287.600,18.869 288.511,18.794 289.117 M18.782 294.013 C 18.697 294.338,18.628 294.073,18.628 293.423 C 18.628 292.774,18.697 292.508,18.782 292.833 C 18.867 293.158,18.867 293.689,18.782 294.013 "
       stroke="none"
       fill="#dceccc"
       fill-rule="evenodd"
       style="stroke-width:1.0015748;stroke-miterlimit:4;stroke-dasharray:none;fill:#98c379;fill-opacity:1" />
    <path
       id="path1"
       d="M29.342 106.682 C 29.342 106.740,29.836 107.234,30.438 107.778 L 31.535 108.769 30.544 107.673 C 29.621 106.651,29.342 106.422,29.342 106.682 M40.170 118.227 C 38.981 118.870,38.308 119.393,38.671 119.393 C 39.303 119.393,42.496 117.569,42.496 117.208 C 42.496 116.963,42.563 116.933,40.170 118.227 M42.327 118.259 C 41.956 118.551,41.197 118.994,40.641 119.243 L 39.629 119.696 40.696 119.629 C 41.283 119.592,41.710 119.508,41.645 119.443 C 41.580 119.377,41.935 118.965,42.433 118.526 C 43.448 117.632,43.371 117.438,42.327 118.259 M43.531 118.360 C 43.266 118.528,43.016 118.888,42.976 119.162 C 42.901 119.673,43.374 119.732,44.069 119.297 C 44.285 119.162,44.539 119.242,44.633 119.475 C 44.768 119.812,44.809 119.812,44.830 119.477 C 44.845 119.245,45.017 119.056,45.214 119.056 C 45.410 119.056,45.483 119.198,45.375 119.373 C 45.267 119.547,45.496 119.666,45.882 119.636 C 46.542 119.587,46.549 119.557,45.988 119.146 C 45.659 118.906,45.232 118.763,45.039 118.828 C 44.846 118.893,44.536 118.746,44.351 118.501 C 44.131 118.211,43.846 118.162,43.531 118.360 M60.793 121.658 C 61.303 121.735,62.137 121.735,62.648 121.658 C 63.158 121.581,62.740 121.518,61.720 121.518 C 60.700 121.518,60.282 121.581,60.793 121.658 M68.212 121.658 C 68.723 121.735,69.557 121.735,70.067 121.658 C 70.578 121.581,70.160 121.518,69.140 121.518 C 68.120 121.518,67.702 121.581,68.212 121.658 M79.342 121.658 C 79.852 121.735,80.687 121.735,81.197 121.658 C 81.707 121.581,81.290 121.518,80.270 121.518 C 79.250 121.518,78.832 121.581,79.342 121.658 M116.105 121.995 C 116.615 122.073,117.449 122.073,117.960 121.995 C 118.470 121.918,118.052 121.855,117.032 121.855 C 116.012 121.855,115.594 121.918,116.105 121.995 M123.524 121.995 C 124.035 122.073,124.869 122.073,125.379 121.995 C 125.890 121.918,125.472 121.855,124.452 121.855 C 123.432 121.855,123.014 121.918,123.524 121.995 M134.659 121.996 C 135.172 122.073,135.930 122.071,136.345 121.991 C 136.760 121.911,136.341 121.848,135.413 121.850 C 134.486 121.853,134.146 121.918,134.659 121.996 M171.417 122.333 C 171.927 122.410,172.761 122.410,173.272 122.333 C 173.782 122.255,173.364 122.192,172.344 122.192 C 171.324 122.192,170.906 122.255,171.417 122.333 M178.499 122.333 C 179.009 122.410,179.844 122.410,180.354 122.333 C 180.864 122.255,180.447 122.192,179.427 122.192 C 178.406 122.192,177.989 122.255,178.499 122.333 M189.629 122.333 C 190.139 122.410,190.974 122.410,191.484 122.333 C 191.994 122.255,191.577 122.192,190.556 122.192 C 189.536 122.192,189.119 122.255,189.629 122.333 M226.391 122.670 C 226.901 122.747,227.736 122.747,228.246 122.670 C 228.756 122.593,228.339 122.529,227.319 122.529 C 226.298 122.529,225.881 122.593,226.391 122.670 M233.811 122.670 C 234.321 122.747,235.156 122.747,235.666 122.670 C 236.176 122.593,235.759 122.529,234.739 122.529 C 233.718 122.529,233.301 122.593,233.811 122.670 M244.941 122.670 C 245.451 122.747,246.286 122.747,246.796 122.670 C 247.306 122.593,246.889 122.529,245.868 122.529 C 244.848 122.529,244.431 122.593,244.941 122.670 M69.237 125.039 C 70.310 125.106,71.979 125.105,72.947 125.037 C 73.914 124.970,73.035 124.915,70.995 124.915 C 68.954 124.916,68.163 124.972,69.237 125.039 M75.807 125.034 C 76.413 125.109,77.324 125.107,77.831 125.030 C 78.337 124.953,77.841 124.892,76.728 124.894 C 75.616 124.896,75.201 124.959,75.807 125.034 M86.594 125.033 C 87.196 125.108,88.183 125.108,88.786 125.033 C 89.389 124.958,88.895 124.897,87.690 124.897 C 86.484 124.897,85.991 124.958,86.594 125.033 M124.199 125.376 C 125.266 125.443,127.011 125.443,128.078 125.376 C 129.144 125.309,128.272 125.254,126.138 125.254 C 124.005 125.254,123.132 125.309,124.199 125.376 M131.119 125.371 C 131.725 125.446,132.636 125.444,133.143 125.367 C 133.649 125.291,133.153 125.229,132.040 125.231 C 130.927 125.233,130.513 125.296,131.119 125.371 M141.906 125.370 C 142.508 125.445,143.495 125.445,144.098 125.370 C 144.701 125.296,144.207 125.234,143.002 125.234 C 141.796 125.234,141.303 125.296,141.906 125.370 M179.511 125.713 C 180.578 125.780,182.323 125.780,183.390 125.713 C 184.456 125.646,183.583 125.591,181.450 125.591 C 179.317 125.591,178.444 125.646,179.511 125.713 M186.431 125.708 C 187.037 125.783,187.948 125.782,188.455 125.705 C 188.961 125.628,188.465 125.566,187.352 125.568 C 186.239 125.570,185.825 125.633,186.431 125.708 M196.880 125.708 C 197.483 125.783,198.470 125.783,199.073 125.708 C 199.675 125.633,199.182 125.572,197.976 125.572 C 196.771 125.572,196.277 125.633,196.880 125.708 M231.962 126.045 C 232.568 126.121,233.479 126.119,233.986 126.042 C 234.493 125.965,233.997 125.904,232.884 125.906 C 231.771 125.907,231.356 125.970,231.962 126.045 M236.859 126.051 C 237.932 126.118,239.602 126.117,240.569 126.049 C 241.536 125.981,240.658 125.926,238.617 125.927 C 236.577 125.928,235.785 125.983,236.859 126.051 M250.512 126.045 C 251.118 126.121,252.029 126.119,252.536 126.042 C 253.042 125.965,252.546 125.904,251.433 125.906 C 250.320 125.907,249.906 125.970,250.512 126.045 M107.673 130.438 C 110.409 130.494,114.886 130.494,117.622 130.438 C 120.358 130.381,118.120 130.335,112.648 130.335 C 107.175 130.335,104.937 130.381,107.673 130.438 M127.592 130.438 C 130.340 130.495,134.741 130.494,137.373 130.438 C 140.005 130.381,137.757 130.334,132.378 130.334 C 126.998 130.335,124.845 130.381,127.592 130.438 M147.154 130.438 C 149.901 130.495,154.303 130.494,156.935 130.438 C 159.567 130.381,157.319 130.334,151.939 130.334 C 146.560 130.335,144.406 130.381,147.154 130.438 M205.839 130.438 C 208.586 130.495,212.987 130.494,215.619 130.438 C 218.251 130.381,216.003 130.334,210.624 130.334 C 205.245 130.335,203.091 130.381,205.839 130.438 M67.875 133.810 C 70.611 133.867,75.089 133.867,77.825 133.810 C 80.561 133.754,78.322 133.707,72.850 133.707 C 67.378 133.707,65.139 133.754,67.875 133.810 M106.998 133.810 C 109.734 133.867,114.212 133.867,116.948 133.810 C 119.684 133.754,117.445 133.707,111.973 133.707 C 106.501 133.707,104.262 133.754,106.998 133.810 M166.041 133.811 C 168.788 133.867,173.190 133.867,175.822 133.810 C 178.454 133.753,176.206 133.707,170.826 133.707 C 165.447 133.707,163.293 133.754,166.041 133.811 M15.255 193.255 C 15.255 193.904,15.325 194.169,15.410 193.845 C 15.494 193.520,15.494 192.989,15.410 192.664 C 15.325 192.340,15.255 192.605,15.255 193.255 M15.255 222.597 C 15.255 223.246,15.325 223.512,15.410 223.187 C 15.494 222.863,15.494 222.331,15.410 222.007 C 15.325 221.682,15.255 221.948,15.255 222.597 M15.255 231.366 C 15.255 232.015,15.325 232.281,15.410 231.956 C 15.494 231.632,15.494 231.100,15.410 230.776 C 15.325 230.451,15.255 230.717,15.255 231.366 M228.262 241.735 C 229.801 241.798,232.230 241.797,233.659 241.734 C 235.087 241.671,233.828 241.620,230.860 241.621 C 227.892 241.621,226.723 241.673,228.262 241.735 M259.949 241.735 C 261.480 241.797,263.984 241.797,265.514 241.735 C 267.045 241.672,265.793 241.621,262.732 241.621 C 259.671 241.621,258.419 241.672,259.949 241.735 M206.340 245.108 C 207.879 245.170,210.307 245.170,211.736 245.107 C 213.165 245.044,211.906 244.993,208.938 244.993 C 205.970 244.994,204.801 245.045,206.340 245.108 M238.380 245.108 C 239.919 245.170,242.348 245.170,243.777 245.107 C 245.205 245.044,243.946 244.993,240.978 244.993 C 238.010 244.994,236.841 245.045,238.380 245.108 M249.173 245.108 C 250.712 245.170,253.140 245.170,254.569 245.107 C 255.998 245.044,254.739 244.993,251.771 244.993 C 248.803 244.994,247.634 245.045,249.173 245.108 M259.781 245.107 C 261.218 245.171,263.571 245.171,265.008 245.107 C 266.446 245.044,265.270 244.992,262.395 244.992 C 259.519 244.992,258.343 245.044,259.781 245.107 M155.565 248.820 C 166.092 248.869,183.318 248.869,193.845 248.820 C 204.372 248.770,195.759 248.730,174.705 248.730 C 153.651 248.730,145.038 248.770,155.565 248.820 M15.262 263.238 C 15.266 263.980,15.335 264.244,15.416 263.824 C 15.496 263.405,15.493 262.797,15.409 262.475 C 15.324 262.153,15.258 262.496,15.262 263.238 M15.255 269.815 C 15.255 270.464,15.325 270.729,15.410 270.405 C 15.494 270.080,15.494 269.549,15.410 269.224 C 15.325 268.900,15.255 269.165,15.255 269.815 M15.274 279.089 C 15.276 280.017,15.342 280.356,15.419 279.844 C 15.497 279.331,15.495 278.572,15.414 278.157 C 15.334 277.742,15.271 278.162,15.274 279.089 M18.635 283.811 C 18.639 284.553,18.708 284.817,18.788 284.397 C 18.869 283.978,18.866 283.371,18.781 283.048 C 18.697 282.726,18.631 283.069,18.635 283.811 M15.255 285.329 C 15.255 285.978,15.325 286.244,15.410 285.919 C 15.494 285.594,15.494 285.063,15.410 284.739 C 15.325 284.414,15.255 284.680,15.255 285.329 M18.654 288.196 C 18.656 289.309,18.719 289.723,18.794 289.117 C 18.869 288.511,18.868 287.600,18.791 287.093 C 18.714 286.587,18.652 287.083,18.654 288.196 M18.628 293.423 C 18.628 294.073,18.697 294.338,18.782 294.013 C 18.867 293.689,18.867 293.158,18.782 292.833 C 18.697 292.508,18.628 292.774,18.628 293.423 M261.812 307.919 C 261.840 308.294,261.983 308.600,262.129 308.600 C 262.502 308.600,262.461 307.669,262.078 307.433 C 261.903 307.325,261.784 307.544,261.812 307.919 M275.817 334.905 C 276.133 335.460,276.515 335.916,276.667 335.917 C 276.819 335.918,276.619 335.464,276.223 334.907 C 275.297 333.607,275.077 333.606,275.817 334.905 M376.391 334.907 C 375.995 335.464,375.795 335.918,375.947 335.917 C 376.098 335.916,376.481 335.460,376.797 334.905 C 377.536 333.606,377.317 333.607,376.391 334.907 "
       stroke="none"
       fill="#d4eccc"
       fill-rule="evenodd"
       style="stroke-width:1.0015748;stroke-miterlimit:4;stroke-dasharray:none;fill:#98c379;fill-opacity:1" />
    <path
       id="path2"
       d="M41.944 117.295 C 42.074 117.505,41.558 118.029,40.731 118.524 C 38.957 119.587,39.327 119.682,41.162 118.634 C 42.564 117.833,42.740 117.560,42.106 117.168 C 41.874 117.025,41.808 117.075,41.944 117.295 M18.628 196.290 C 18.628 196.939,18.697 197.205,18.782 196.880 C 18.867 196.556,18.867 196.024,18.782 195.700 C 18.697 195.375,18.628 195.641,18.628 196.290 M18.635 205.902 C 18.639 206.644,18.708 206.908,18.788 206.488 C 18.869 206.069,18.866 205.462,18.781 205.139 C 18.697 204.817,18.631 205.160,18.635 205.902 M18.646 220.405 C 18.649 221.332,18.714 221.672,18.792 221.159 C 18.869 220.646,18.867 219.887,18.787 219.473 C 18.707 219.058,18.644 219.477,18.646 220.405 M18.646 229.848 C 18.649 230.776,18.714 231.115,18.792 230.602 C 18.869 230.090,18.867 229.331,18.787 228.916 C 18.707 228.501,18.644 228.921,18.646 229.848 M133.356 247.049 C 133.356 249.831,133.409 250.925,133.472 249.479 C 133.535 248.033,133.535 245.756,133.471 244.420 C 133.407 243.083,133.355 244.266,133.356 247.049 M18.646 244.013 C 18.649 244.941,18.714 245.280,18.792 244.768 C 18.869 244.255,18.867 243.496,18.787 243.081 C 18.707 242.667,18.644 243.086,18.646 244.013 M15.255 282.293 C 15.255 282.943,15.325 283.208,15.410 282.884 C 15.494 282.559,15.494 282.028,15.410 281.703 C 15.325 281.379,15.255 281.644,15.255 282.293 "
       stroke="none"
       fill="#dcf4cd"
       fill-rule="evenodd"
       style="stroke-width:1.0015748;stroke-miterlimit:4;stroke-dasharray:none;fill:#98c379;fill-opacity:1" />
    <path
       id="path3"
       d="M39.760 116.716 C 38.895 117.346,34.263 119.020,33.161 119.101 C 32.074 119.180,35.865 119.672,37.437 119.655 C 38.272 119.646,38.593 119.570,38.150 119.486 C 37.459 119.355,37.621 119.196,39.312 118.343 C 41.715 117.130,41.673 117.173,41.083 116.583 C 40.667 116.167,40.489 116.185,39.760 116.716 M14.840 119.366 C 14.840 119.788,15.058 120.067,15.387 120.067 C 15.856 120.067,15.869 120.152,15.482 120.658 C 15.233 120.982,15.413 120.906,15.884 120.489 C 16.354 120.072,16.949 119.730,17.206 119.730 C 18.004 119.730,17.111 119.143,15.936 118.896 C 14.977 118.694,14.840 118.752,14.840 119.366 M83.052 125.031 C 83.562 125.108,84.397 125.108,84.907 125.031 C 85.417 124.954,85.000 124.890,83.980 124.890 C 82.960 124.890,82.542 124.954,83.052 125.031 M138.364 125.368 C 138.874 125.445,139.709 125.445,140.219 125.368 C 140.729 125.291,140.312 125.228,139.292 125.228 C 138.272 125.228,137.854 125.291,138.364 125.368 M193.339 125.705 C 193.849 125.783,194.684 125.783,195.194 125.705 C 195.704 125.628,195.287 125.565,194.266 125.565 C 193.246 125.565,192.829 125.628,193.339 125.705 M246.965 126.043 C 247.475 126.120,248.309 126.120,248.820 126.043 C 249.330 125.965,248.912 125.902,247.892 125.902 C 246.872 125.902,246.454 125.965,246.965 126.043 M186.277 130.438 C 189.024 130.495,193.426 130.494,196.058 130.438 C 198.690 130.381,196.442 130.334,191.062 130.334 C 185.683 130.335,183.530 130.381,186.277 130.438 M217.132 245.108 C 218.672 245.170,221.100 245.170,222.529 245.107 C 223.957 245.044,222.698 244.993,219.730 244.993 C 216.762 244.994,215.593 245.045,217.132 245.108 "
       stroke="none"
       fill="#dcecd4"
       fill-rule="evenodd"
       style="stroke-width:1.0015748;stroke-miterlimit:4;stroke-dasharray:none;fill:#98c379;fill-opacity:1" />
    <path
       id="path4"
       d="M39.460 118.261 C 38.255 118.910,37.648 119.335,38.111 119.205 C 38.992 118.959,41.821 117.406,41.821 117.169 C 41.821 116.983,41.922 116.936,39.460 118.261 "
       stroke="none"
       fill="#e0eccc"
       fill-rule="evenodd"
       style="stroke-width:1.0015748;stroke-miterlimit:4;stroke-dasharray:none;fill:#98c379;fill-opacity:1" />
  </g>
</svg>
